<svg viewBox="0 0 12 12" fill="none" xmlns="http://www.w3.org/2000/svg">
<path d="M8.3785 1.4985L7.3785 2.4985H2.5V9.4985H9.5V4.6195L10.5 3.6195V9.9985C10.5 10.1311 10.4473 10.2583 10.3536 10.3521C10.2598 10.4458 10.1326 10.4985 10 10.4985H2C1.86739 10.4985 1.74021 10.4458 1.64645 10.3521C1.55268 10.2583 1.5 10.1311 1.5 9.9985V1.9985C1.5 1.86589 1.55268 1.73871 1.64645 1.64495C1.74021 1.55118 1.86739 1.4985 2 1.4985H8.3785ZM10.2425 1.0485L10.95 1.7555L6.3535 6.352L5.6475 6.353L5.6465 5.645L10.2425 1.0485Z" fill="#ACA3A8"/>
</svg>
